<svg xmlns="http://www.w3.org/2000/svg" width="32" height="32" fill="none">
  <rect width="32" height="32" fill="#2C4117" rx="5"/>
  <g clip-path="url(#a)">
    <path stroke="#576435" stroke-linecap="round" stroke-linejoin="round" d="M23.82 6H8.18A2.18 2.18 0 0 0 6 8.18v15.64A2.18 2.18 0 0 0 8.18 26h15.64A2.18 2.18 0 0 0 26 23.82V8.18A2.18 2.18 0 0 0 23.82 6ZM11 6v20M21 6v20M6 16h20M6 21h5M21 21h5M21 11h5M6 11h5"/>
    <path fill="#fff" d="M8.693 13.84c0-.477.14-.85.418-1.122.279-.279.671-.418 1.177-.418h1.991c1.063 0 1.863.213 2.398.638.543.425.814 1.052.814 1.881 0 .785-.238 1.393-.715 1.826-.477.433-1.137.649-1.98.649l1.826 1.848a.536.536 0 0 1 .176.385c0 .154-.073.293-.22.418a.69.69 0 0 1-.407.154c-.183 0-.36-.088-.528-.264l-2.42-2.508H9.98v2.189c0 .183-.062.33-.187.44a.676.676 0 0 1-.462.154c-.198 0-.356-.051-.473-.154a.595.595 0 0 1-.165-.44V13.84Zm3.575 2.475c.704 0 1.199-.11 1.485-.33.293-.227.44-.616.44-1.166 0-.535-.158-.92-.473-1.155-.315-.235-.8-.352-1.452-.352h-1.793a.453.453 0 0 0-.363.154c-.088.095-.132.231-.132.407v2.442h2.288Zm7.959 3.795a5.453 5.453 0 0 1-1.991-.363 4.315 4.315 0 0 1-1.551-1.012.419.419 0 0 1-.143-.319c0-.154.066-.29.198-.407a.442.442 0 0 1 .319-.143c.154 0 .312.077.473.231.33.323.726.572 1.188.748.47.169.972.253 1.507.253.543 0 .96-.095 1.254-.286.3-.19.45-.458.45-.803 0-.337-.153-.609-.461-.814-.308-.213-.832-.4-1.573-.561-1.093-.235-1.885-.543-2.376-.924-.491-.389-.737-.887-.737-1.496 0-.396.125-.748.374-1.056.257-.308.612-.546 1.067-.715.462-.169.994-.253 1.595-.253.675 0 1.28.114 1.815.341.543.227.942.543 1.199.946.073.117.11.231.11.341 0 .161-.08.297-.242.407a.541.541 0 0 1-.286.088.65.65 0 0 1-.484-.242 1.989 1.989 0 0 0-.88-.638 3.153 3.153 0 0 0-1.232-.231c-.572 0-1.012.088-1.32.264-.3.169-.451.418-.451.748 0 .308.147.561.44.759.293.19.81.37 1.55.539 1.123.264 1.93.59 2.42.979.492.389.738.895.738 1.518 0 .418-.125.788-.374 1.111-.242.315-.587.561-1.034.737-.447.169-.968.253-1.562.253Z"/>
  </g>
  <defs>
    <clipPath id="a">
      <path fill="#fff" d="M4 4h24v24H4z"/>
    </clipPath>
  </defs>
</svg>
